<svg width="59" height="59" viewBox="0 0 59 59" fill="none" xmlns="http://www.w3.org/2000/svg">
<g clip-path="url(#clip0_238_41)">
<rect width="59" height="59" rx="10" fill="#6366F1"/>
<path d="M29.5 14.75V29.5H40.5625M51.625 29.5C51.625 32.4055 51.0527 35.2825 49.9408 37.9669C48.829 40.6512 47.1992 43.0902 45.1447 45.1447C43.0902 47.1992 40.6512 48.8289 37.9669 49.9408C35.2825 51.0527 32.4055 51.625 29.5 51.625C26.5945 51.625 23.7175 51.0527 21.0331 49.9408C18.3488 48.8289 15.9098 47.1992 13.8553 45.1447C11.8008 43.0902 10.1711 40.6512 9.05917 37.9669C7.94728 35.2825 7.375 32.4055 7.375 29.5C7.375 23.6321 9.70602 18.0045 13.8553 13.8553C18.0045 9.70602 23.6321 7.375 29.5 7.375C35.3679 7.375 40.9955 9.70602 45.1447 13.8553C49.294 18.0045 51.625 23.6321 51.625 29.5Z" stroke="white" stroke-opacity="0.3" stroke-width="1.5" stroke-linecap="round" stroke-linejoin="round"/>
<path d="M37.2993 34.9282C38.0205 34.4357 38.8664 34.1575 39.7391 34.1257C40.6118 34.0939 41.4757 34.3098 42.2308 34.7485C42.986 35.1872 43.6015 35.8307 44.0061 36.6046C44.4108 37.3785 44.588 38.2511 44.5174 39.1215C42.6677 39.768 40.703 40.0196 38.75 39.86C38.744 38.1127 38.2409 36.4017 37.2993 34.9298C36.4636 33.619 35.3108 32.5402 33.9475 31.7932C32.5842 31.0463 31.0546 30.6552 29.5 30.6562C27.9458 30.6555 26.4164 31.0466 25.0535 31.7936C23.6905 32.5406 22.5379 33.6192 21.7023 34.9298M38.7485 39.8585L38.75 39.9062C38.75 40.2531 38.7315 40.5954 38.693 40.933C35.8954 42.5381 32.7254 43.3802 29.5 43.375C26.1546 43.375 23.0143 42.487 20.3071 40.933C20.2675 40.5762 20.2484 40.2174 20.25 39.8585M20.25 39.8585C18.2977 40.0238 16.3341 39.7732 14.4858 39.1231C14.4154 38.2529 14.5927 37.3805 14.9973 36.6069C15.4019 35.8333 16.0172 35.19 16.7721 34.7514C17.5269 34.3127 18.3905 34.0967 19.2629 34.1283C20.1354 34.1599 20.9811 34.4377 21.7023 34.9298M20.25 39.8585C20.2556 38.1113 20.7613 36.4018 21.7023 34.9298M34.125 21.4062C34.125 22.6329 33.6378 23.8093 32.7704 24.6766C31.9031 25.544 30.7267 26.0312 29.5 26.0312C28.2734 26.0312 27.097 25.544 26.2297 24.6766C25.3623 23.8093 24.875 22.6329 24.875 21.4062C24.875 20.1796 25.3623 19.0032 26.2297 18.1359C27.097 17.2685 28.2734 16.7813 29.5 16.7812C30.7267 16.7812 31.9031 17.2685 32.7704 18.1359C33.6378 19.0032 34.125 20.1796 34.125 21.4062ZM43.375 26.0312C43.375 26.4868 43.2853 26.9378 43.111 27.3587C42.9367 27.7795 42.6812 28.1619 42.3591 28.484C42.037 28.8061 41.6546 29.0616 41.2337 29.236C40.8129 29.4103 40.3618 29.5 39.9063 29.5C39.4508 29.5 38.9997 29.4103 38.5789 29.236C38.158 29.0616 37.7756 28.8061 37.4535 28.484C37.1314 28.1619 36.8759 27.7795 36.7016 27.3587C36.5273 26.9378 36.4375 26.4868 36.4375 26.0312C36.4375 25.1113 36.803 24.229 37.4535 23.5785C38.104 22.928 38.9863 22.5625 39.9063 22.5625C40.8263 22.5625 41.7086 22.928 42.3591 23.5785C43.0096 24.229 43.375 25.1113 43.375 26.0312ZM22.5625 26.0312C22.5625 26.4868 22.4728 26.9378 22.2985 27.3587C22.1242 27.7795 21.8687 28.1619 21.5466 28.484C21.2245 28.8061 20.8421 29.0616 20.4212 29.236C20.0004 29.4103 19.5493 29.5 19.0938 29.5C18.6383 29.5 18.1872 29.4103 17.7664 29.236C17.3455 29.0616 16.9631 28.8061 16.641 28.484C16.3189 28.1619 16.0634 27.7795 15.8891 27.3587C15.7148 26.9378 15.625 26.4868 15.625 26.0312C15.625 25.1113 15.9905 24.229 16.641 23.5785C17.2915 22.928 18.1738 22.5625 19.0938 22.5625C20.0138 22.5625 20.8961 22.928 21.5466 23.5785C22.1971 24.229 22.5625 25.1113 22.5625 26.0312Z" stroke="white" stroke-width="1.5" stroke-linecap="round" stroke-linejoin="round"/>
</g>
<defs>
<clipPath id="clip0_238_41">
<rect width="59" height="59" rx="10" fill="white"/>
</clipPath>
</defs>
</svg>
